Patient4_TMGait_0pt2_02_right_07_EMG.mot
version=1
nRows=26
nColumns=33
inDegrees=no
endheader
time	1LAddLong	2LGlutMax	3LGlutMed	4LIliopsoas	5LSemiMemb	6LBicFemLong	7LRecFem	8LVastMed	9LVastLat	10LGasMed	11LTibAnt	12lTibPost	13LPeroneusLong	14LSol	15LExtDigLong	16LFlexDigLong	17RAddLong	18RGlutMax	19RGlutMed	20RIliopsoas	21RSemiMemb	22RBicFemLong	23RRecFem	24RVastMed	25RVastLat	26RGasMed	27RTibAnt	28RTibPost	29RPeroneusLong	30RSol	31RExtDigLong	32RFlexDigLong
16.973	-0.045929	-0.070496	0.002747	0.020447	-0.062866	0.14618	0.005646	0.027771	0.032501	0.045624	-0.027313	-0.025635	0.50598	0.031586	0.007935	0.006714	0.000153	-0.092163	-0.16083	-0.2655	-0.020905	-0.057831	-0.12146	0.020294	0.025482	-0.007172	-0.028687	-0.005951	-0.063019	0.04425	-0.005951	-0.013733
16.974	-0.037231	0.020294	0.072327	0.030975	-0.11627	0.03006	0.009918	0.005646	-0.018616	0.055847	0.015564	-0.053101	0.27771	0.19119	-0.02533	0.005035	-0.014954	-0.14084	-0.16739	-0.16068	-0.014801	-0.050354	-0.11002	0.023956	0.024414	-0.010529	0.20721	-0.002594	-0.13611	0.053558	-0.001526	-0.005798
16.975	-0.019379	0.029297	-0.025635	0.039825	-0.21881	0.006104	0.016022	-0.00824	0.00061	-0.07782	0.030823	-0.018921	0.42816	0.33478	0.060577	0.010681	-0.014496	-0.17578	-0.4863	0.12253	0.007477	-0.028687	-0.11154	0.03006	0.010529	-0.011292	0.093689	-0.00061	-0.16327	-0.008698	-0.005188	-0.003662
16.976	-0.015564	0.033875	-0.037384	0.001831	-0.15457	0.055695	0.0383	-0.018005	0.014801	-0.15167	0.021667	-0.029907	-0.17273	0.30014	0.084839	0.009766	0.020599	-0.2594	-0.31616	0.36606	0.006104	-0.031586	-0.15335	-0.048828	0.026093	0.003357	-0.016022	0.00061	0.023346	-0.11398	-0.000916	-0.012207
16.977	-0.001526	0.062408	-0.083313	-0.002136	-0.040588	0.045013	0.067444	-0.018768	0.005188	-0.090485	0.03418	-0.015564	-0.82031	0.23758	-0.001373	-0.000153	0.055084	-0.26321	-0.37766	0.40756	0.019226	-0.029449	-0.20218	-0.034485	0.025177	0.014191	-0.042419	-0.001526	0.23865	-0.23605	0	-0.001678
16.978	0.015869	0.13534	-0.06073	-0.007935	0.020294	0.012665	0.058594	-0.003052	-0.022888	-0.070953	0.031891	-0.018158	-0.53894	0.1796	-0.1651	0.007019	0.060272	-0.18723	-0.48355	0.17441	0.016174	-0.042572	-0.19882	-0.001678	0.007172	0.018158	0.072937	0.001831	0.042114	-0.16968	-0.003052	-0.004425
16.979	0.015869	0.099792	0.063324	0.00824	0.1326	-0.13458	0.011444	0.007324	-0.024719	-0.11414	-0.008698	-0.011292	-0.061035	0.18753	-0.11841	0.004425	0.057983	-0.22766	-0.17212	0.045624	0.009155	-0.045166	-0.16708	-0.013123	0.014801	0.006866	0.26169	-0.007019	-0.090332	-0.063477	-0.001221	-0.014496
16.98	0.028381	0.14389	0.11749	0.01236	0.1474	-0.033569	-0.044098	0.006104	-0.013123	-0.11871	0.014496	-0.013123	0.11734	0.15305	-0.075989	-0.002747	0.035248	-0.14358	-0.17014	-0.00824	0.014496	-0.029755	-0.16449	-0.076447	0.007019	-0.013123	0.27573	-0.003204	-0.090179	0.10223	-0.00412	-0.012665
16.981	0.039825	0.16083	0.1033	0.016479	0.12619	-0.20523	-0.06134	-0.011292	0.005493	-0.059814	0.012207	-0.033112	-0.038452	0.10071	-0.064392	-0.005035	0.024567	-0.063171	0.47058	-0.054321	0.023193	-0.045471	-0.1445	-0.032654	0.019836	-0.018005	-0.056305	-0.001373	-0.039368	0.15396	-0.005798	-0.014801
16.982	0.030823	0.15228	0.021057	-0.009766	0.078888	-0.26154	-0.039215	-0.011139	-0.032196	-0.004425	0.024414	-0.022888	0.18768	-0.043335	0.15289	0.005798	0.003204	-0.093994	0.25116	0.02243	0.036469	-0.045319	-0.11612	0.012665	0.00885	-0.014801	0.047455	-0.000153	0.12283	0.12436	-0.005493	-0.016174
16.983	0.014954	0.14633	-0.003662	-0.024109	0.036926	-0.012512	0.03479	-0.043793	0.009918	-0.14618	-0.001984	0.010834	1.1742	-0.058289	0.2446	0.006256	-0.016785	-0.17639	-0.31189	0.015869	0.029602	-0.048828	-0.068054	-0.00473	0.016022	-0.0177	0.38513	-0.001068	0.27756	-0.055389	-0.002899	-0.000305
16.984	0.007935	0.13947	0.30014	-0.003204	0.062561	0.13763	0.096436	-0.040894	-0.00885	-0.039215	0.02655	0.018921	-0.26047	0.040894	0.23789	0.001373	-0.031586	-0.16663	-0.18463	0.012512	0.035248	-0.049896	0.014954	-0.006104	0.004578	-0.028839	0.46036	0.000916	0.20996	-0.021515	-0.00351	-0.011139
16.985	0.00351	0.14114	0.057068	0.005951	0.040588	0.067444	0.12756	0.00473	0.013123	0.0383	0.030518	0.016937	-0.71457	-0.066833	0.040894	0.002289	-0.037231	-0.16998	-0.090485	0.028992	0.050201	-0.053711	-0.020905	0.036926	0.001221	-0.037231	0.44006	-0.002747	0.12329	0.059814	-0.007172	-0.002594
16.986	0.003052	0.20798	-0.14816	-0.02594	0.014648	-0.12772	0.14999	0.031128	0.059967	0.12146	-0.001373	0.007782	0.2681	-0.10056	-0.12466	-0.009308	-0.052185	-0.16312	-0.045013	-0.01709	0.049286	-0.062714	-0.082245	0.062103	0.006866	-0.041199	-0.11353	0.000916	0.16739	0.13534	0.002136	-0.007629
16.987	-0.007782	0.23666	-0.20401	-0.019226	-0.029907	-0.20126	0.063019	0.024872	0.054932	0.13718	0.006104	-0.008545	-0.18784	0.20218	-0.008392	0.002899	-0.027924	-0.16693	-0.68283	-0.048828	0.058746	-0.091095	-0.19867	0.029144	0.019379	-0.046997	-0.79315	-0.001221	0.1152	0.098267	-0.005188	0.001068
16.988	-0.007629	0.22995	0.026855	0.027618	-0.019989	-0.16327	0.001221	0.02182	-0.005798	0.034943	0.006409	-0.013123	-0.4364	0.27237	-0.045776	0.008087	0.058441	-0.13626	-0.8902	-0.055847	0.058136	-0.093689	-0.16739	0.011902	0.020599	-0.053406	-0.61706	-0.001373	-0.036316	0.056	-0.004578	-0.001984
16.989	-0.020447	0.1918	-0.050812	0.038757	0.026398	-0.085449	-0.034943	0.036316	-0.026703	0.12024	-0.024719	-0.014496	0.12329	0.18585	-0.14038	-0.005035	0.074005	-0.16403	-0.96435	-0.024719	0.053406	-0.094757	-0.3595	-0.047913	0.00351	-0.062714	-0.24124	-0.000916	-0.060577	0.038452	-0.001678	-0.006714
16.99	-0.014954	0.063171	-0.24277	0.002747	-0.00412	-0.004425	-0.11505	0.035553	-0.023651	0.23743	-0.019836	0.016632	0.23621	-0.023499	-0.083313	0.019531	0.059357	-0.1683	-0.75577	-0.027161	0.053253	-0.10132	-0.41077	-0.05722	-0.007324	-0.063782	-0.24063	0.005798	-0.10269	0.090332	-0.003357	0.013275
16.991	0.006104	0.040588	-0.085144	-0.014038	-0.035553	0.04303	-0.10391	0.030975	-0.064697	0.43121	-0.002136	0.014954	0.43472	-0.44357	-0.032349	0.023499	0.030365	-0.1619	-0.64133	-0.070648	0.061646	-0.10803	-0.33035	-0.092468	-0.012665	-0.060425	-0.073853	0.006409	-0.065613	0.1828	-0.003967	0.012512
16.992	-0.000153	0.036316	0.20828	0.018463	0.026245	0.084839	-0.02594	0.026093	0.067139	0.11063	0.00351	0.004425	-0.1886	-0.53436	0.027924	0.015717	-0.00351	-0.061035	0.10407	-0.10223	0.060272	-0.079346	-0.21378	-0.093231	-0.020142	-0.065308	0.033875	0.000763	-0.017242	0.10681	0.007019	0.017395
16.993	0.003052	-0.016479	0.35965	0.021057	0.033417	0.24536	0.13779	0.018005	0.068817	-0.51498	0.024567	-0.006104	-0.3865	-0.47943	0.029755	0.009308	-0.022583	-0.066223	-0.21698	-0.035706	0.055542	-0.073395	-0.073242	-0.08667	-0.024109	-0.059662	0.17899	0.005188	-0.055847	0.025635	-0.010681	0.00885
16.994	-0.002747	-0.077667	0.17883	0.006104	0.013275	0.24262	0.082092	0.002289	0.060425	-0.32638	0.010681	0.015259	0.17899	-0.16937	0	0.016479	0.001984	-0.081329	-0.57968	-0.053864	0.05188	-0.071411	0.090332	-0.068512	-0.035095	-0.059204	0.30548	0.006866	-0.10193	0.027771	-0.006714	0.01358
16.995	0.021057	-0.10513	-0.08667	0.008392	0.018463	0.1944	-0.053558	-0.002441	0.067596	-0.20981	0.019073	0.009766	-0.020752	-0.10193	-0.03479	-0.002289	0.017242	-0.042725	-0.58518	-0.069733	0.052185	-0.067291	0.13779	-0.018158	-0.025787	-0.050659	0.46493	0.011902	-0.093231	-0.007172	-0.009003	0.002594
16.996	0.029449	-0.077667	-0.034485	-0.016937	0.004578	0.10025	-0.11017	-0.016785	0.07782	-0.16266	0.014648	0.012665	-0.13229	0.024261	-0.007935	-0.009613	0.06012	-0.018768	-0.59525	0.01297	0.037689	-0.058136	0.19287	-0.009003	-0.025024	-0.047607	0.17975	0.01297	-0.17731	-0.030823	0.003204	-0.002136
16.997	0.043945	-0.050201	0.005188	-0.014648	0.001373	-0.24139	-0.12207	-0.031891	0.085907	-0.14008	0.015259	0.010986	-0.052185	0.15503	-0.002747	0.016937	0.066986	0.014954	-0.74753	0.074615	0.041962	-0.035248	0.1973	0.023651	0.003815	-0.046692	0.032043	0.006256	-0.20081	-0.027161	-0.001526	0.014954
16.998	0.03952	0.03006	0.026093	-0.002441	0.002136	-0.15198	-0.08606	-0.018921	0.077667	-0.11505	0.009613	0.006409	-0.060883	0.19852	0.015411	0.007782	0.042114	0.00885	-0.87372	0.086212	0.048981	-0.025482	0.18402	0.06546	0.042572	-0.041962	0.26459	0.012054	-0.21286	-0.042419	-0.002594	-0.003967
